<svg version="1.1" id="Layer_1" xmlns="http://www.w3.org/2000/svg" xmlns:xlink="http://www.w3.org/1999/xlink" x="0px" y="0px"
	 width="100%" viewBox="0 0 604 95" enable-background="new 0 0 604 95" xml:space="preserve">
<path fill="#FEFEFF" opacity="1.000000" stroke="none" 
	d="
M1.000000,76.000000 
	C1.000000,51.053989 1.000000,26.107977 1.000000,1.000000 
	C43.354092,1.000000 85.708389,1.000000 128.573517,1.378636 
	C129.391998,2.859880 129.407455,4.201406 130.071045,5.013013 
	C131.277267,6.488320 132.868698,7.648675 134.299377,8.940464 
	C135.530518,7.445417 136.974258,6.069535 137.906250,4.406803 
	C138.398087,3.529370 137.997604,2.151774 138.000000,1.000000 
	C216.354233,1.000000 294.708466,1.000000 373.526581,1.318460 
	C373.626617,2.626220 373.262756,3.615520 372.440277,4.664808 
	C334.757385,4.724797 297.533112,4.724797 260.336273,4.724797 
	C260.336273,34.868481 260.336273,64.097054 260.336273,93.366592 
	C374.356262,93.366592 488.022125,93.366592 602.145935,93.366592 
	C602.145935,75.627632 602.145935,58.313606 602.502686,40.999718 
	C603.572937,40.999901 604.286438,40.999950 605.000000,41.000000 
	C605.000000,59.319565 605.000000,77.639130 605.000000,95.979347 
	C403.666656,95.979347 202.333328,95.979347 1.000000,95.979347 
	C1.000000,94.329819 1.000000,92.664383 1.331078,90.545456 
	C3.232811,90.442383 4.803468,90.792801 6.374124,91.143211 
	C6.588346,90.617714 6.802569,90.092216 7.016791,89.566727 
	C5.011194,87.377815 3.005597,85.188911 1.000000,83.000000 
	C1.000000,82.250000 1.000000,81.500000 1.356001,80.409363 
	C4.372332,81.656677 6.963121,83.383469 9.725734,84.767212 
	C10.902243,85.356514 12.830058,85.824051 13.696827,85.253563 
	C14.511678,84.717255 14.616635,82.739525 14.608143,81.398674 
	C14.594819,79.294952 14.223557,77.193489 14.381765,75.107727 
	C19.324223,76.410461 23.888796,77.696541 28.765751,79.070641 
	C30.693739,69.758064 32.513695,60.967312 34.333649,52.176559 
	C34.814953,52.170155 35.296257,52.163746 35.777565,52.157337 
	C37.400326,58.154331 39.076645,64.137459 40.633701,70.151466 
	C43.177673,79.977356 43.148224,79.824852 53.113369,80.030991 
	C56.892479,80.109161 58.613911,79.289688 59.318710,75.143898 
	C60.863838,66.055061 63.161549,57.094170 65.436806,46.791096 
	C67.620667,58.479816 69.534004,68.720566 71.559929,79.563934 
	C76.890770,78.115204 81.781471,76.786079 87.014725,75.363869 
	C86.883347,73.670853 86.920525,72.197296 86.636063,70.788696 
	C84.009232,57.780884 81.375626,44.774033 78.646324,31.787426 
	C76.113899,19.737629 76.049561,19.836500 63.643948,18.177036 
	C60.159878,17.710981 58.685654,18.650686 57.888123,22.237535 
	C55.749630,31.855223 53.130268,41.365990 50.701897,50.919220 
	C47.337334,42.916260 45.185577,34.845276 42.816360,26.838644 
	C42.409710,25.464399 41.222733,23.467451 40.146080,23.291853 
	C35.313046,22.503582 30.389681,22.269133 25.536360,21.838209 
	C21.959696,36.710255 18.551868,50.880264 14.821556,64.898193 
	C12.888886,63.591446 11.278704,62.436787 9.668520,61.282127 
	C9.340161,63.361095 8.601161,65.473740 8.768306,67.512077 
	C9.124270,71.853096 9.950735,76.155533 10.634121,80.812752 
	C7.101488,79.048012 4.050744,77.524010 1.000000,76.000000 
M94.559235,32.103970 
	C83.455246,45.080170 88.544319,64.581306 96.736923,72.277451 
	C107.012726,81.930542 123.270111,82.490723 134.699310,73.420288 
	C152.112976,59.600471 149.046738,33.789936 128.910172,24.689426 
	C117.185974,19.390799 104.988976,21.878443 94.559235,32.103970 
M222.759277,60.468819 
	C228.258926,67.331779 233.758575,74.194748 238.655365,80.305405 
	C243.001404,76.136490 247.121323,72.184486 251.330231,68.147118 
	C245.300797,61.574196 239.035309,54.743958 232.343536,47.449005 
	C237.472565,42.636318 242.298340,38.108189 247.395294,33.325588 
	C243.679474,29.100000 240.325729,25.286158 235.825836,20.168922 
	C229.993774,26.805725 224.562759,32.986153 219.131729,39.166576 
	C218.608719,38.879280 218.085693,38.591980 217.562683,38.304684 
	C217.562683,32.946960 217.562683,27.589233 217.562683,22.053701 
	C213.543137,22.053701 210.219009,22.242809 206.925827,22.004435 
	C203.063156,21.724833 202.188431,23.474016 202.221954,27.024858 
	C202.372833,43.007847 202.278748,58.993076 202.305634,74.977440 
	C202.307770,76.246910 202.558945,77.515953 202.735641,79.172012 
	C208.120422,79.172012 213.173706,79.172012 218.069519,79.172012 
	C218.069519,74.614777 217.609573,70.412041 218.249161,66.383881 
	C218.608917,64.118156 220.783752,62.140636 222.759277,60.468819 
M164.497559,59.870743 
	C160.731369,54.167332 160.509476,48.145634 164.101181,42.515533 
	C168.676407,35.343719 179.057541,35.583302 185.803253,42.434872 
	C186.795853,43.443047 189.035446,44.468357 190.019547,44.014500 
	C193.432709,42.440403 196.546646,40.217518 199.725372,38.271511 
	C194.354263,25.440037 181.752090,19.604389 167.486908,23.173796 
	C153.696960,26.624285 146.483505,38.507973 147.459305,52.649612 
	C148.536819,68.265335 159.530182,79.040009 174.132736,79.886673 
	C186.094238,80.580200 197.134598,72.242172 199.620132,60.395325 
	C195.838959,58.934956 192.014954,57.458042 188.330887,56.035175 
	C179.591812,65.755707 173.140228,66.913147 164.497559,59.870743 
z"/>
<path fill="#FFFFFF" opacity="1.000000" stroke="none" 
	d="
M605.000000,40.531342 
	C604.286438,40.999950 603.572937,40.999901 602.437500,40.534843 
	C602.015686,28.467901 602.015686,16.865971 602.015686,4.773623 
	C599.366821,4.773623 597.403625,4.773623 595.440369,4.773623 
	C533.487000,4.773621 471.533661,4.775602 409.580322,4.765347 
	C407.418884,4.764988 405.257477,4.642694 403.062561,4.220356 
	C403.019379,2.908987 403.009674,1.954494 403.000000,1.000000 
	C470.211395,1.000000 537.422791,1.000000 605.000000,1.000000 
	C605.000000,14.018611 605.000000,27.040648 605.000000,40.531342 
z"/>
<path fill="#F1F0F2" opacity="1.000000" stroke="none" 
	d="
M14.003881,75.091072 
	C14.223557,77.193489 14.594819,79.294952 14.608143,81.398674 
	C14.616635,82.739525 14.511678,84.717255 13.696827,85.253563 
	C12.830058,85.824051 10.902243,85.356514 9.725734,84.767212 
	C6.963121,83.383469 4.372332,81.656677 1.356001,80.034363 
	C1.000000,78.933327 1.000000,77.866661 1.000000,76.399994 
	C4.050744,77.524010 7.101488,79.048012 10.634121,80.812752 
	C9.950735,76.155533 9.124270,71.853096 8.768306,67.512077 
	C8.601161,65.473740 9.340161,63.361095 9.668520,61.282127 
	C11.278704,62.436787 12.888886,63.591446 14.808174,65.295052 
	C14.746146,68.926353 14.375013,72.008713 14.003881,75.091072 
z"/>
<path fill="#F1F0F2" opacity="1.000000" stroke="none" 
	d="
M137.550018,1.000000 
	C137.997604,2.151774 138.398087,3.529370 137.906250,4.406803 
	C136.974258,6.069535 135.530518,7.445417 134.299377,8.940464 
	C132.868698,7.648675 131.277267,6.488320 130.071045,5.013013 
	C129.407455,4.201406 129.391998,2.859880 129.042175,1.378636 
	C131.700012,1.000000 134.400024,1.000000 137.550018,1.000000 
z"/>
<path fill="#FFFFFF" opacity="1.000000" stroke="none" 
	d="
M377.000000,1.000000 
	C381.356903,1.000000 385.713806,1.000000 390.549835,1.362897 
	C390.984467,2.691962 390.939972,3.658129 390.441284,4.679058 
	C385.692871,4.698938 381.398682,4.664058 377.064697,4.267615 
	C377.016632,2.937368 377.008331,1.968684 377.000000,1.000000 
z"/>
<path fill="#E2C8FB" opacity="1.000000" stroke="none" 
	d="
M390.895447,4.624297 
	C390.939972,3.658129 390.984467,2.691962 391.014465,1.362897 
	C394.692902,1.000000 398.385834,1.000000 402.539368,1.000000 
	C403.009674,1.954494 403.019379,2.908987 402.608093,4.345041 
	C398.423187,4.759167 394.659332,4.691732 390.895447,4.624297 
z"/>
<path fill="#F2F1F2" opacity="1.000000" stroke="none" 
	d="
M1.000000,83.437500 
	C3.005597,85.188911 5.011194,87.377815 7.016791,89.566727 
	C6.802569,90.092216 6.588346,90.617714 6.374124,91.143211 
	C4.803468,90.792801 3.232811,90.442383 1.331078,90.045990 
	C1.000000,87.958336 1.000000,85.916664 1.000000,83.437500 
z"/>
<path fill="#E2C8FB" opacity="1.000000" stroke="none" 
	d="
M376.625000,1.000000 
	C377.008331,1.968684 377.016632,2.937368 376.651489,4.376373 
	C375.151672,4.766071 374.025299,4.685446 372.898895,4.604820 
	C373.262756,3.615520 373.626617,2.626220 373.995239,1.318460 
	C374.750000,1.000000 375.500000,1.000000 376.625000,1.000000 
z"/>
<path fill="#AF63F8" opacity="1.000000" stroke="none" 
	d="
M372.440277,4.664810 
	C374.025299,4.685446 375.151672,4.766071 376.691284,4.737937 
	C381.398682,4.664058 385.692871,4.698938 390.441254,4.679057 
	C394.659332,4.691732 398.423187,4.759167 402.641541,4.701917 
	C405.257477,4.642694 407.418884,4.764988 409.580322,4.765347 
	C471.533661,4.775602 533.487000,4.773621 595.440369,4.773623 
	C597.403625,4.773623 599.366821,4.773623 602.015686,4.773623 
	C602.015686,16.865971 602.015686,28.467901 602.080811,40.534706 
	C602.145935,58.313606 602.145935,75.627632 602.145935,93.366592 
	C488.022125,93.366592 374.356262,93.366592 260.336273,93.366592 
	C260.336273,64.097054 260.336273,34.868481 260.336273,4.724797 
	C297.533112,4.724797 334.757385,4.724797 372.440277,4.664810 
M377.202026,8.912157 
	C376.129517,8.962248 375.057007,9.012340 373.160095,8.930268 
	C371.771362,8.954165 370.382629,8.978060 368.092072,8.892614 
	C365.060638,8.933112 362.029236,8.973610 358.066162,8.901945 
	C326.835876,8.901945 295.605591,8.901945 264.463104,8.901945 
	C264.463104,36.256863 264.463104,62.802681 264.463104,89.356758 
	C375.747406,89.356758 486.625824,89.356758 597.790649,89.356758 
	C597.790649,75.713837 597.790649,62.412529 597.947571,48.381641 
	C597.856323,46.809448 597.765076,45.237251 597.677612,42.650467 
	C597.677612,31.551775 597.677612,20.453083 597.677612,8.863403 
	C595.478699,8.863403 593.682007,8.863378 591.885315,8.863407 
	C527.923889,8.864454 463.962494,8.864029 400.001099,8.874770 
	C398.339233,8.875050 396.677368,8.997331 394.265717,8.931990 
	C393.508087,8.967155 392.750488,9.002321 391.071930,8.909170 
	C386.714996,8.947082 382.358093,8.984993 377.202026,8.912157 
z"/>
<path fill="#AA58F7" opacity="1.000000" stroke="none" 
	d="
M14.381765,75.107727 
	C14.375013,72.008713 14.746146,68.926353 15.130660,65.447128 
	C18.551868,50.880264 21.959696,36.710255 25.536360,21.838209 
	C30.389681,22.269133 35.313046,22.503582 40.146080,23.291853 
	C41.222733,23.467451 42.409710,25.464399 42.816360,26.838644 
	C45.185577,34.845276 47.337334,42.916260 50.701897,50.919220 
	C53.130268,41.365990 55.749630,31.855223 57.888123,22.237535 
	C58.685654,18.650686 60.159878,17.710981 63.643948,18.177036 
	C76.049561,19.836500 76.113899,19.737629 78.646324,31.787426 
	C81.375626,44.774033 84.009232,57.780884 86.636063,70.788696 
	C86.920525,72.197296 86.883347,73.670853 87.014725,75.363869 
	C81.781471,76.786079 76.890770,78.115204 71.559929,79.563934 
	C69.534004,68.720566 67.620667,58.479816 65.436806,46.791096 
	C63.161549,57.094170 60.863838,66.055061 59.318710,75.143898 
	C58.613911,79.289688 56.892479,80.109161 53.113369,80.030991 
	C43.148224,79.824852 43.177673,79.977356 40.633701,70.151466 
	C39.076645,64.137459 37.400326,58.154331 35.777565,52.157337 
	C35.296257,52.163746 34.814953,52.170155 34.333649,52.176559 
	C32.513695,60.967312 30.693739,69.758064 28.765751,79.070641 
	C23.888796,77.696541 19.324223,76.410461 14.381765,75.107727 
z"/>
<path fill="#AA59F7" opacity="1.000000" stroke="none" 
	d="
M94.812805,31.848017 
	C104.988976,21.878443 117.185974,19.390799 128.910172,24.689426 
	C149.046738,33.789936 152.112976,59.600471 134.699310,73.420288 
	C123.270111,82.490723 107.012726,81.930542 96.736923,72.277451 
	C88.544319,64.581306 83.455246,45.080170 94.812805,31.848017 
M106.300697,60.152996 
	C112.154442,65.678680 118.403671,66.373825 124.780792,62.208694 
	C129.910461,58.858326 132.266342,52.239059 130.290924,46.495407 
	C128.373352,40.919899 124.237183,37.764988 118.584030,37.016907 
	C112.721954,36.241180 107.576157,38.272499 104.455917,43.416836 
	C101.115318,48.924496 101.798882,54.503788 106.300697,60.152996 
z"/>
<path fill="#AA5AF7" opacity="1.000000" stroke="none" 
	d="
M222.450073,60.251049 
	C220.783752,62.140636 218.608917,64.118156 218.249161,66.383881 
	C217.609573,70.412041 218.069519,74.614777 218.069519,79.172012 
	C213.173706,79.172012 208.120422,79.172012 202.735641,79.172012 
	C202.558945,77.515953 202.307770,76.246910 202.305634,74.977440 
	C202.278748,58.993076 202.372833,43.007847 202.221954,27.024858 
	C202.188431,23.474016 203.063156,21.724833 206.925827,22.004435 
	C210.219009,22.242809 213.543137,22.053701 217.562683,22.053701 
	C217.562683,27.589233 217.562683,32.946960 217.562683,38.304684 
	C218.085693,38.591980 218.608719,38.879280 219.131729,39.166576 
	C224.562759,32.986153 229.993774,26.805725 235.825836,20.168922 
	C240.325729,25.286158 243.679474,29.100000 247.395294,33.325588 
	C242.298340,38.108189 237.472565,42.636318 232.343536,47.449005 
	C239.035309,54.743958 245.300797,61.574196 251.330231,68.147118 
	C247.121323,72.184486 243.001404,76.136490 238.655365,80.305405 
	C233.758575,74.194748 228.258926,67.331779 222.450073,60.251049 
z"/>
<path fill="#AA59F7" opacity="1.000000" stroke="none" 
	d="
M164.735428,60.178070 
	C173.140228,66.913147 179.591812,65.755707 188.330887,56.035175 
	C192.014954,57.458042 195.838959,58.934956 199.620132,60.395325 
	C197.134598,72.242172 186.094238,80.580200 174.132736,79.886673 
	C159.530182,79.040009 148.536819,68.265335 147.459305,52.649612 
	C146.483505,38.507973 153.696960,26.624285 167.486908,23.173796 
	C181.752090,19.604389 194.354263,25.440037 199.725372,38.271511 
	C196.546646,40.217518 193.432709,42.440403 190.019547,44.014500 
	C189.035446,44.468357 186.795853,43.443047 185.803253,42.434872 
	C179.057541,35.583302 168.676407,35.343719 164.101181,42.515533 
	C160.509476,48.145634 160.731369,54.167332 164.735428,60.178070 
z"/>
<path fill="#FEFDFF" opacity="1.000000" stroke="none" 
	d="
M395.015503,9.062715 
	C396.677368,8.997331 398.339233,8.875050 400.001099,8.874770 
	C463.962494,8.864029 527.923889,8.864454 591.885315,8.863407 
	C593.682007,8.863378 595.478699,8.863403 597.677612,8.863403 
	C597.677612,20.453083 597.677612,31.551775 597.283325,42.968212 
	C594.623230,41.171001 592.357361,39.056049 590.070923,36.478241 
	C590.050415,30.762804 590.050415,25.510220 590.050415,19.801115 
	C583.941528,20.334221 578.707642,20.790964 572.473633,21.334990 
	C572.473633,39.161308 572.473633,56.703079 572.473633,74.244850 
	C572.045349,74.264771 571.617065,74.284683 571.188843,74.304604 
	C570.689575,72.944023 570.147278,71.597496 569.697815,70.220680 
	C565.522156,57.430702 561.394836,44.624866 557.188599,31.844986 
	C553.338684,20.147564 553.303345,20.159348 540.950134,20.416363 
	C540.617554,20.423281 540.200867,20.288958 539.965942,20.440920 
	C538.600830,21.323753 536.657654,21.973539 536.043579,23.248247 
	C532.369934,30.873789 528.928711,38.615501 525.604553,46.401501 
	C524.960815,47.909332 525.179504,49.785336 525.000183,51.495720 
	C525.000000,51.499950 524.997375,51.505779 524.604492,51.426285 
	C521.364014,57.188129 518.459106,63.003284 515.762695,68.913620 
	C515.508850,69.470024 516.568298,70.625565 517.000000,71.645729 
	C516.981873,71.788528 516.979065,72.076408 516.606750,71.846527 
	C515.477478,72.014565 514.720459,72.412491 513.963501,72.810417 
	C514.577759,73.640800 515.014709,74.870026 515.835815,75.235245 
	C520.345520,77.241035 524.949219,79.035255 530.207031,81.182388 
	C530.908447,71.128029 538.008667,72.621216 544.411804,72.784805 
	C545.574707,72.814514 546.765869,72.949097 547.897949,72.759842 
	C551.648254,72.132858 553.514160,73.793205 553.796143,77.430138 
	C554.049927,80.703194 555.722961,81.346649 558.819885,80.945244 
	C563.956421,80.279472 568.514893,76.875099 574.581909,80.605247 
	C578.273010,82.874611 584.497314,81.023834 590.067444,81.023834 
	C590.067444,67.247925 590.067444,54.147091 590.349731,41.211861 
	C593.018250,43.955387 595.404480,46.533302 597.790649,49.111221 
	C597.790649,62.412529 597.790649,75.713837 597.790649,89.356758 
	C486.625824,89.356758 375.747406,89.356758 264.463104,89.356758 
	C264.463104,62.802681 264.463104,36.256863 264.463104,8.901945 
	C295.605591,8.901945 326.835876,8.901945 358.384613,9.260214 
	C354.620514,13.566628 351.007080,17.604654 353.950317,23.955746 
	C356.732544,29.959373 361.170685,32.868267 367.793274,32.359436 
	C362.164703,44.940388 356.516876,57.144154 351.142517,69.467155 
	C350.470245,71.008560 350.599884,74.408424 351.453186,74.855125 
	C356.079926,77.277313 361.050934,79.041870 365.862671,81.016251 
	C369.810883,72.863609 369.868286,72.426285 373.367401,72.885529 
	C380.257141,73.789780 390.468811,67.926460 391.092804,81.751068 
	C397.138123,80.245407 402.522369,78.904388 408.208740,77.488129 
	C407.588684,75.344681 407.184723,73.757462 406.672241,72.206100 
	C401.726196,57.232952 396.531982,42.336018 391.928741,27.258535 
	C390.339874,22.054319 387.861847,19.932789 382.516693,20.754446 
	C380.425781,21.075859 378.217987,20.636633 375.987854,20.228889 
	C374.585632,18.374647 372.970398,15.384440 371.988831,15.579701 
	C369.472260,16.080336 367.237274,17.996433 364.889679,19.346613 
	C365.164795,19.908253 365.439911,20.469893 365.715027,21.031532 
	C367.587128,20.513475 369.459198,19.995419 371.563507,19.413107 
	C371.752747,20.357021 371.939148,21.286818 372.073730,22.550005 
	C371.137115,24.638430 370.252380,26.393463 368.974792,28.133018 
	C364.938751,29.320587 361.234680,29.002554 359.515167,25.493971 
	C358.131348,22.670353 357.095551,18.667866 358.049683,15.937838 
	C359.564270,11.604051 363.891479,11.230013 368.478088,13.157157 
	C368.685791,11.483925 368.839874,10.242942 368.993896,9.001957 
	C370.382629,8.978060 371.771362,8.954165 373.580750,9.357721 
	C376.395782,15.955667 380.598846,18.796862 386.712402,17.942417 
	C391.719452,17.242613 394.556610,14.182028 395.015503,9.062715 
M446.959808,19.471684 
	C446.652557,19.387083 446.345306,19.302481 445.118561,19.121071 
	C429.568451,19.522284 414.018341,19.923496 398.216980,20.331192 
	C398.216980,26.633682 398.216980,32.378487 398.216980,38.401810 
	C403.480469,38.401810 408.513367,38.401810 413.450745,38.401810 
	C413.450745,52.754292 413.450745,66.768341 413.450745,80.759201 
	C419.633636,80.759201 425.398285,80.759201 431.399597,80.759201 
	C431.399597,66.140297 431.399597,51.791428 431.399597,36.731445 
	C436.779388,36.731445 441.884033,36.731445 447.684662,37.223503 
	C448.143768,42.492939 448.727722,47.755119 449.034393,53.033413 
	C449.570740,62.265182 449.936737,71.506851 450.324402,79.694717 
	C463.577881,79.694717 476.186737,79.752258 488.792755,79.588959 
	C489.837189,79.575432 491.705048,78.117035 491.756683,77.245079 
	C492.046448,72.350647 491.896301,67.430161 491.896301,62.757881 
	C483.212677,62.757881 475.341553,62.757881 467.347534,62.757881 
	C467.347534,61.087364 467.347534,59.686230 467.347534,58.068897 
	C473.855103,57.357323 480.070892,56.677658 486.617310,55.961838 
	C486.617310,50.934616 486.617310,46.388889 486.617310,41.000843 
	C482.709320,41.000843 479.066772,41.228085 475.466858,40.933903 
	C472.177765,40.665127 468.142609,42.012394 465.496552,37.850777 
	C472.018738,37.850777 477.785126,37.948502 483.543854,37.782135 
	C484.985748,37.740475 487.490234,37.082794 487.655762,36.311192 
	C488.747955,31.220659 489.334534,26.021650 490.166565,20.303705 
	C487.231506,20.303705 485.097778,20.322729 482.964478,20.300554 
	C470.999847,20.176184 459.035339,20.041876 447.029358,19.945932 
	C447.029358,19.945932 447.075867,19.964615 446.959808,19.471684 
M343.949646,46.009888 
	C349.093567,46.629795 352.640686,44.065014 354.960083,39.895756 
	C357.235260,35.806076 355.659058,32.177383 353.325226,28.338652 
	C349.608673,22.225742 344.168915,22.691111 338.131500,22.578939 
	C336.996735,21.083956 336.100189,18.634459 334.680725,18.280199 
	C331.014526,17.365206 327.095306,17.526625 323.318726,16.973913 
	C319.527100,16.418997 317.741241,17.527781 316.918182,21.591373 
	C315.225464,29.948681 312.860474,38.169827 310.772156,46.447006 
	C307.989868,39.695091 306.167999,32.846622 304.066803,26.084955 
	C303.598694,24.578674 302.313965,22.406973 301.121399,22.203236 
	C295.800262,21.294191 290.376251,20.987360 284.707642,20.435543 
	C280.400787,38.967884 276.207520,57.011360 271.927887,75.426582 
	C276.796631,76.817673 281.315765,77.865891 285.653259,79.420815 
	C289.507690,80.802559 290.541748,79.356010 291.122742,75.754303 
	C292.205811,69.039940 293.773529,62.403740 295.422089,54.355511 
	C297.802216,63.137413 299.705994,70.515404 301.872864,77.815292 
	C302.241882,79.058426 303.682159,80.816528 304.723328,80.885246 
	C309.641113,81.209892 314.592224,81.030022 319.496124,81.030022 
	C321.536469,71.828438 323.431335,63.282856 325.581116,53.587688 
	C327.535156,63.456322 329.261993,72.177292 331.064911,81.282722 
	C337.452698,79.385155 343.222046,77.671295 348.985321,75.959244 
	C346.947174,65.523460 345.042877,55.773048 343.949646,46.009888 
z"/>
<path fill="#F2F1F2" opacity="1.000000" stroke="none" 
	d="
M367.857758,32.018772 
	C361.170685,32.868267 356.732544,29.959373 353.950317,23.955746 
	C351.007080,17.604654 354.620514,13.566628 358.850433,9.316296 
	C362.029236,8.973610 365.060638,8.933112 368.542999,8.947287 
	C368.839874,10.242942 368.685791,11.483925 368.478088,13.157157 
	C363.891479,11.230013 359.564270,11.604051 358.049683,15.937838 
	C357.095551,18.667866 358.131348,22.670353 359.515167,25.493971 
	C361.234680,29.002554 364.938751,29.320587 368.873535,28.464165 
	C368.729340,29.880117 368.293549,30.949444 367.857758,32.018772 
z"/>
<path fill="#F2F1F2" opacity="1.000000" stroke="none" 
	d="
M394.640625,8.997352 
	C394.556610,14.182028 391.719452,17.242613 386.712402,17.942417 
	C380.598846,18.796862 376.395782,15.955667 373.992981,9.423802 
	C375.057007,9.012340 376.129517,8.962248 377.637878,9.317184 
	C380.497467,11.463961 382.982056,14.639307 385.327759,14.539836 
	C387.623108,14.442500 389.776917,11.007476 391.992859,9.037487 
	C392.750488,9.002321 393.508087,8.967155 394.640625,8.997352 
z"/>
<path fill="#FFFFFF" opacity="1.000000" stroke="none" 
	d="
M391.532410,8.973329 
	C389.776917,11.007476 387.623108,14.442500 385.327759,14.539836 
	C382.982056,14.639307 380.497467,11.463961 378.037415,9.372559 
	C382.358093,8.984993 386.714996,8.947082 391.532410,8.973329 
z"/>
<path fill="#DEC0FB" opacity="1.000000" stroke="none" 
	d="
M597.869141,48.746429 
	C595.404480,46.533302 593.018250,43.955387 590.293335,40.803223 
	C590.000244,39.133015 590.045837,38.037060 590.091492,36.941097 
	C592.357361,39.056049 594.623230,41.171001 597.281494,43.475506 
	C597.765076,45.237251 597.856323,46.809448 597.869141,48.746429 
z"/>
<path fill="#FEFDFF" opacity="1.000000" stroke="none" 
	d="
M106.040329,59.884510 
	C101.798882,54.503788 101.115318,48.924496 104.455917,43.416836 
	C107.576157,38.272499 112.721954,36.241180 118.584030,37.016907 
	C124.237183,37.764988 128.373352,40.919899 130.290924,46.495407 
	C132.266342,52.239059 129.910461,58.858326 124.780792,62.208694 
	C118.403671,66.373825 112.154442,65.678680 106.040329,59.884510 
z"/>
<path fill="#FEFDFF" opacity="1.000000" stroke="none" 
	d="
M516.979065,72.076401 
	C516.979065,72.076408 516.981873,71.788528 517.137451,71.283447 
	C519.861084,64.354164 522.429260,57.929970 524.997375,51.505775 
	C524.997375,51.505779 525.000000,51.499950 525.353455,51.380123 
	C528.799255,44.648026 532.030518,38.096359 534.948792,31.408148 
	C538.615356,23.005041 538.507874,23.122559 547.398743,22.960146 
	C550.620972,22.901283 552.027832,23.924419 552.999695,26.971022 
	C557.749634,41.860481 562.745605,56.671341 567.607117,71.525543 
	C568.003418,72.736481 568.042297,74.064362 568.235291,75.263664 
	C558.471497,79.517174 558.224609,79.428421 553.852722,70.063545 
	C549.512146,70.063545 545.000244,70.398636 540.558899,69.982376 
	C534.411682,69.406258 529.592224,70.331230 528.782166,78.215042 
	C524.501038,75.988480 520.740051,74.032440 516.979065,72.076401 
M546.414062,39.494122 
	C546.187195,38.874805 545.960327,38.255486 545.302368,36.459423 
	C542.275696,43.931797 539.617249,50.494968 536.817322,57.407486 
	C541.945374,57.407486 546.298950,57.407486 551.179138,57.407486 
	C549.591858,51.333435 548.134155,45.755390 546.414062,39.494122 
z"/>
<path fill="#B269F8" opacity="1.000000" stroke="none" 
	d="
M343.138550,46.022644 
	C345.042877,55.773048 346.947174,65.523460 348.985321,75.959244 
	C343.222046,77.671295 337.452698,79.385155 331.064911,81.282722 
	C329.261993,72.177292 327.535156,63.456322 325.581116,53.587688 
	C323.431335,63.282856 321.536469,71.828438 319.496124,81.030022 
	C314.592224,81.030022 309.641113,81.209892 304.723328,80.885246 
	C303.682159,80.816528 302.241882,79.058426 301.872864,77.815292 
	C299.705994,70.515404 297.802216,63.137413 295.422089,54.355511 
	C293.773529,62.403740 292.205811,69.039940 291.122742,75.754303 
	C290.541748,79.356010 289.507690,80.802559 285.653259,79.420815 
	C281.315765,77.865891 276.796631,76.817673 271.927887,75.426582 
	C276.207520,57.011360 280.400787,38.967884 284.707642,20.435543 
	C290.376251,20.987360 295.800262,21.294191 301.121399,22.203236 
	C302.313965,22.406973 303.598694,24.578674 304.066803,26.084955 
	C306.167999,32.846622 307.989868,39.695091 310.772156,46.447006 
	C312.860474,38.169827 315.225464,29.948681 316.918182,21.591373 
	C317.741241,17.527781 319.527100,16.418997 323.318726,16.973913 
	C327.095306,17.526625 331.014526,17.365206 334.680725,18.280199 
	C336.100189,18.634459 336.996735,21.083956 338.390930,23.287994 
	C338.962128,25.480757 339.273895,26.964460 339.649780,28.831833 
	C340.715607,33.826969 341.717346,38.438435 342.712585,43.426975 
	C342.850250,44.543583 342.994415,45.283115 343.138550,46.022644 
M336.143494,26.115620 
	C336.591919,21.749069 334.065643,20.331463 330.256195,20.117929 
	C327.006866,19.935789 323.761505,19.684000 320.161469,19.439005 
	C318.669098,25.898630 317.193634,32.285145 315.299866,39.244831 
	C314.931641,40.840633 314.563446,42.436436 314.011139,44.802216 
	C312.964325,48.671772 311.917511,52.541325 310.488342,57.824368 
	C307.409363,46.913681 304.786469,37.489410 302.075867,28.090435 
	C301.226959,25.146801 289.328583,21.603550 287.116333,23.620512 
	C286.558502,24.129080 286.300049,25.074072 286.115265,25.867706 
	C282.430359,41.695709 278.776489,57.530941 275.029541,73.740219 
	C279.339111,74.964333 283.397522,76.117111 287.974152,77.417091 
	C290.329681,66.075508 292.544647,55.410629 294.759644,44.745750 
	C297.812225,53.271061 300.006348,61.612427 302.123749,69.973221 
	C304.552429,79.563232 305.065460,80.023399 314.847046,78.711708 
	C316.024628,78.553787 317.699188,77.064568 317.960541,75.921860 
	C319.773041,67.997322 321.272461,60.001167 323.128418,51.366924 
	C323.398743,50.235859 323.669067,49.104794 324.117432,47.261784 
	C324.523621,45.730610 324.929779,44.199440 325.335968,42.668266 
	C325.613953,42.719143 325.891937,42.770016 326.169922,42.820892 
	C327.020660,46.582146 327.871399,50.343399 328.727722,54.788429 
	C328.968018,55.870968 329.208313,56.953506 329.531860,58.911747 
	C330.624268,65.227646 331.716675,71.543549 332.854248,78.120621 
	C336.826355,76.969170 340.111969,76.306686 343.119751,75.003120 
	C344.335266,74.476334 345.886169,72.369247 345.680023,71.286926 
	C343.941956,62.162285 341.832062,53.108467 339.905792,43.222988 
	C338.666107,37.795609 337.426422,32.368225 336.143494,26.115620 
z"/>
<path fill="#B36BF8" opacity="1.000000" stroke="none" 
	d="
M516.606750,71.846527 
	C520.740051,74.032440 524.501038,75.988480 528.782166,78.215042 
	C529.592224,70.331230 534.411682,69.406258 540.558899,69.982376 
	C545.000244,70.398636 549.512146,70.063545 553.852722,70.063545 
	C558.224609,79.428421 558.471497,79.517174 568.235291,75.263664 
	C568.042297,74.064362 568.003418,72.736481 567.607117,71.525543 
	C562.745605,56.671341 557.749634,41.860481 552.999695,26.971022 
	C552.027832,23.924419 550.620972,22.901283 547.398743,22.960146 
	C538.507874,23.122559 538.615356,23.005041 534.948792,31.408148 
	C532.030518,38.096359 528.799255,44.648026 525.353638,51.375893 
	C525.179504,49.785336 524.960815,47.909332 525.604553,46.401501 
	C528.928711,38.615501 532.369934,30.873789 536.043579,23.248247 
	C536.657654,21.973539 538.600830,21.323753 539.965942,20.440920 
	C540.200867,20.288958 540.617554,20.423281 540.950134,20.416363 
	C553.303345,20.159348 553.338684,20.147564 557.188599,31.844986 
	C561.394836,44.624866 565.522156,57.430702 569.697815,70.220680 
	C570.147278,71.597496 570.689575,72.944023 571.188843,74.304604 
	C571.617065,74.284683 572.045349,74.264771 572.473633,74.244850 
	C572.473633,56.703079 572.473633,39.161308 572.473633,21.334990 
	C578.707642,20.790964 583.941528,20.334221 590.050415,19.801115 
	C590.050415,25.510220 590.050415,30.762804 590.070923,36.478245 
	C590.045837,38.037060 590.000244,39.133015 590.010986,40.637611 
	C590.067444,54.147091 590.067444,67.247925 590.067444,81.023834 
	C584.497314,81.023834 578.273010,82.874611 574.581909,80.605247 
	C568.514893,76.875099 563.956421,80.279472 558.819885,80.945244 
	C555.722961,81.346649 554.049927,80.703194 553.796143,77.430138 
	C553.514160,73.793205 551.648254,72.132858 547.897949,72.759842 
	C546.765869,72.949097 545.574707,72.814514 544.411804,72.784805 
	C538.008667,72.621216 530.908447,71.128029 530.207031,81.182388 
	C524.949219,79.035255 520.345520,77.241035 515.835815,75.235245 
	C515.014709,74.870026 514.577759,73.640800 513.963501,72.810417 
	C514.720459,72.412491 515.477478,72.014565 516.606750,71.846527 
M575.105347,44.516644 
	C575.105347,55.626400 575.105347,66.736160 575.105347,77.987061 
	C579.324280,77.987061 583.016357,77.987061 586.948669,77.987061 
	C587.838562,59.476059 586.723877,41.405148 586.620972,23.040211 
	C584.833069,23.040211 583.198669,23.062637 581.565063,23.035801 
	C577.464661,22.968435 575.068115,24.134623 575.461304,29.077784 
	C575.841125,33.853756 575.262878,38.705925 575.105347,44.516644 
z"/>
<path fill="#B46CF8" opacity="1.000000" stroke="none" 
	d="
M447.070770,19.910963 
	C459.035339,20.041876 470.999847,20.176184 482.964478,20.300554 
	C485.097778,20.322729 487.231506,20.303705 490.166565,20.303705 
	C489.334534,26.021650 488.747955,31.220659 487.655762,36.311192 
	C487.490234,37.082794 484.985748,37.740475 483.543854,37.782135 
	C477.785126,37.948502 472.018738,37.850777 465.496552,37.850777 
	C468.142609,42.012394 472.177765,40.665127 475.466858,40.933903 
	C479.066772,41.228085 482.709320,41.000843 486.617310,41.000843 
	C486.617310,46.388889 486.617310,50.934616 486.617310,55.961838 
	C480.070892,56.677658 473.855103,57.357323 467.347534,58.068897 
	C467.347534,59.686230 467.347534,61.087364 467.347534,62.757881 
	C475.341553,62.757881 483.212677,62.757881 491.896301,62.757881 
	C491.896301,67.430161 492.046448,72.350647 491.756683,77.245079 
	C491.705048,78.117035 489.837189,79.575432 488.792755,79.588959 
	C476.186737,79.752258 463.577881,79.694717 450.324402,79.694717 
	C449.936737,71.506851 449.570740,62.265182 449.034393,53.033413 
	C448.727722,47.755119 448.143768,42.492939 447.335541,36.533413 
	C447.014526,30.532536 447.042664,25.221750 447.070770,19.910963 
M482.543274,77.192970 
	C484.638336,77.081894 486.733429,76.970810 488.805756,76.860931 
	C488.805756,72.649055 488.805756,69.065918 488.805756,65.115021 
	C480.768829,65.470024 473.058746,65.810600 465.132751,66.160706 
	C464.762238,62.274323 464.455200,59.053860 464.123413,55.573986 
	C471.025116,54.898998 477.393860,54.276134 483.854401,53.644291 
	C483.854401,50.261143 483.854401,47.354668 483.854401,44.231148 
	C478.948242,43.837875 474.341125,43.340820 469.720917,43.128010 
	C462.704315,42.804813 461.990967,41.871143 463.725525,35.062954 
	C469.796356,35.062954 475.761444,35.208916 481.709656,34.956383 
	C483.128784,34.896130 485.382385,33.770599 485.707794,32.675934 
	C486.575714,29.756456 486.603241,26.587149 486.972168,23.454739 
	C474.665405,23.454739 462.817688,23.454739 450.479675,23.454739 
	C451.258606,41.945168 452.017334,59.956268 452.797363,78.472115 
	C463.035370,78.022575 472.316132,77.615074 482.543274,77.192970 
z"/>
<path fill="#B46CF8" opacity="1.000000" stroke="none" 
	d="
M367.793274,32.359436 
	C368.293549,30.949444 368.729340,29.880117 369.266357,28.479643 
	C370.252380,26.393463 371.137115,24.638430 372.366608,22.329380 
	C373.828705,21.364857 374.946045,20.954350 376.063416,20.543842 
	C378.217987,20.636633 380.425781,21.075859 382.516693,20.754446 
	C387.861847,19.932789 390.339874,22.054319 391.928741,27.258535 
	C396.531982,42.336018 401.726196,57.232952 406.672241,72.206100 
	C407.184723,73.757462 407.588684,75.344681 408.208740,77.488129 
	C402.522369,78.904388 397.138123,80.245407 391.092804,81.751068 
	C390.468811,67.926460 380.257141,73.789780 373.367401,72.885529 
	C369.868286,72.426285 369.810883,72.863609 365.862671,81.016251 
	C361.050934,79.041870 356.079926,77.277313 351.453186,74.855125 
	C350.599884,74.408424 350.470245,71.008560 351.142517,69.467155 
	C356.516876,57.144154 362.164703,44.940388 367.793274,32.359436 
M360.127228,55.726261 
	C357.668213,61.286655 355.209198,66.847046 352.624756,72.691025 
	C356.956757,74.508347 360.721497,76.087700 364.948395,77.860931 
	C365.567047,70.365273 370.209625,69.410736 376.155579,69.991577 
	C379.950256,70.362267 383.834167,69.820084 387.628876,70.190659 
	C389.008026,70.325340 391.268982,71.816109 391.375824,72.866386 
	C391.961334,78.621452 395.123474,78.588188 399.354218,77.089935 
	C401.152130,76.453224 403.032501,76.049316 405.039062,75.494331 
	C399.867798,59.883732 394.603485,44.819004 389.974487,29.561539 
	C388.395813,24.358137 386.077759,22.446531 380.653656,22.894819 
	C376.856628,23.208633 374.386871,23.607164 372.729767,27.746656 
	C369.025177,37.000797 364.579285,45.958168 360.127228,55.726261 
z"/>
<path fill="#B065F8" opacity="1.000000" stroke="none" 
	d="
M447.050049,19.928448 
	C447.042664,25.221750 447.014526,30.532536 446.987549,36.287384 
	C441.884033,36.731445 436.779388,36.731445 431.399597,36.731445 
	C431.399597,51.791428 431.399597,66.140297 431.399597,80.759201 
	C425.398285,80.759201 419.633636,80.759201 413.450745,80.759201 
	C413.450745,66.768341 413.450745,52.754292 413.450745,38.401810 
	C408.513367,38.401810 403.480469,38.401810 398.216980,38.401810 
	C398.216980,32.378487 398.216980,26.633682 398.216980,20.331192 
	C414.018341,19.923496 429.568451,19.522284 445.704987,19.350035 
	C446.510437,19.793875 446.771912,19.922413 447.075867,19.964615 
	C447.075867,19.964615 447.029358,19.945932 447.050049,19.928448 
M416.106018,78.081436 
	C420.289490,78.398766 424.472961,78.716095 429.081726,79.065689 
	C429.081726,63.687321 429.081726,49.278000 429.081726,34.587269 
	C434.531464,34.587269 439.593109,34.587269 444.550659,34.587269 
	C444.550659,30.165649 444.550659,26.105074 444.550659,22.774805 
	C430.658936,22.774805 417.188232,22.722485 403.720123,22.883545 
	C402.742676,22.895233 401.085205,24.353966 400.942474,25.317463 
	C400.442627,28.691622 400.468018,32.143593 400.263794,36.158386 
	C405.760864,36.158386 410.810455,36.158386 415.794434,36.158386 
	C415.794434,50.227062 415.794434,63.710072 416.106018,78.081436 
z"/>
<path fill="#F1F0F2" opacity="1.000000" stroke="none" 
	d="
M339.585632,28.448164 
	C339.273895,26.964460 338.962128,25.480757 338.550873,23.630810 
	C344.168915,22.691111 349.608673,22.225742 353.325226,28.338652 
	C355.659058,32.177383 357.235260,35.806076 354.960083,39.895756 
	C352.640686,44.065014 349.093567,46.629795 343.544098,46.016266 
	C342.994415,45.283115 342.850250,44.543583 343.132751,43.409649 
	C345.271179,42.542442 347.187286,42.410576 348.655457,41.531048 
	C352.600281,39.167877 353.234955,33.876442 350.301758,29.919773 
	C347.114349,25.620203 343.729645,25.155399 339.585632,28.448164 
z"/>
<path fill="#B36BF8" opacity="1.000000" stroke="none" 
	d="
M524.604492,51.426285 
	C522.429260,57.929970 519.861084,64.354164 517.155518,71.140640 
	C516.568298,70.625565 515.508850,69.470024 515.762695,68.913620 
	C518.459106,63.003284 521.364014,57.188129 524.604492,51.426285 
z"/>
<path fill="#EFEBF3" opacity="1.000000" stroke="none" 
	d="
M375.987854,20.228889 
	C374.946045,20.954350 373.828705,21.364857 372.418457,21.995989 
	C371.939148,21.286818 371.752747,20.357021 371.563507,19.413107 
	C369.459198,19.995419 367.587128,20.513475 365.715027,21.031532 
	C365.439911,20.469893 365.164795,19.908253 364.889679,19.346613 
	C367.237274,17.996433 369.472260,16.080336 371.988831,15.579701 
	C372.970398,15.384440 374.585632,18.374647 375.987854,20.228889 
z"/>
<path fill="#B46CF8" opacity="1.000000" stroke="none" 
	d="
M447.017822,19.718149 
	C446.771912,19.922413 446.510437,19.793875 446.164734,19.398438 
	C446.345306,19.302481 446.652557,19.387083 447.017822,19.718149 
z"/>
<path fill="#B56FF8" opacity="1.000000" stroke="none" 
	d="
M546.545288,39.835732 
	C548.134155,45.755390 549.591858,51.333435 551.179138,57.407486 
	C546.298950,57.407486 541.945374,57.407486 536.817322,57.407486 
	C539.617249,50.494968 542.275696,43.931797 545.302368,36.459423 
	C545.960327,38.255486 546.187195,38.874805 546.545288,39.835732 
M546.566223,50.029125 
	C546.099792,48.534512 545.633301,47.039898 544.778320,44.300358 
	C543.205688,48.471092 542.079407,51.458038 540.819580,54.799129 
	C543.528748,54.799129 545.442871,54.799129 547.508545,54.799129 
	C547.238525,53.299294 547.010681,52.033669 546.566223,50.029125 
z"/>
<path fill="#FDFCFF" opacity="1.000000" stroke="none" 
	d="
M322.872375,52.028000 
	C321.272461,60.001167 319.773041,67.997322 317.960541,75.921860 
	C317.699188,77.064568 316.024628,78.553787 314.847046,78.711708 
	C305.065460,80.023399 304.552429,79.563232 302.123749,69.973221 
	C300.006348,61.612427 297.812225,53.271061 294.759644,44.745750 
	C292.544647,55.410629 290.329681,66.075508 287.974152,77.417091 
	C283.397522,76.117111 279.339111,74.964333 275.029541,73.740219 
	C278.776489,57.530941 282.430359,41.695709 286.115265,25.867706 
	C286.300049,25.074072 286.558502,24.129080 287.116333,23.620512 
	C289.328583,21.603550 301.226959,25.146801 302.075867,28.090435 
	C304.786469,37.489410 307.409363,46.913681 310.488342,57.824368 
	C311.917511,52.541325 312.964325,48.671772 314.435730,44.451408 
	C317.530975,46.743069 320.201691,49.385536 322.872375,52.028000 
z"/>
<path fill="#FEFDFF" opacity="1.000000" stroke="none" 
	d="
M315.718140,38.671661 
	C317.193634,32.285145 318.669098,25.898630 320.161469,19.439005 
	C323.761505,19.684000 327.006866,19.935789 330.256195,20.117929 
	C334.065643,20.331463 336.591919,21.749069 335.818665,26.690716 
	C330.889038,33.402359 332.702820,40.409679 339.833984,44.033356 
	C341.832062,53.108467 343.941956,62.162285 345.680023,71.286926 
	C345.886169,72.369247 344.335266,74.476334 343.119751,75.003120 
	C340.111969,76.306686 336.826355,76.969170 332.854248,78.120621 
	C331.716675,71.543549 330.624268,65.227646 329.893799,58.454903 
	C332.688599,56.407932 335.223297,54.947769 337.502808,53.161934 
	C338.380493,52.474354 338.677795,51.045975 339.239563,49.955135 
	C337.926270,50.108589 336.480988,49.965260 335.327637,50.478264 
	C333.040588,51.495533 330.914642,52.874931 328.722107,54.104652 
	C327.871399,50.343399 327.020660,46.582146 326.169922,42.820892 
	C325.891937,42.770016 325.613953,42.719143 325.335968,42.668266 
	C324.929779,44.199440 324.523621,45.730610 323.732788,47.468277 
	C320.804810,44.673737 318.261475,41.672699 315.718140,38.671661 
z"/>
<path fill="#FEFDFF" opacity="1.000000" stroke="none" 
	d="
M339.649780,28.831833 
	C343.729645,25.155399 347.114349,25.620203 350.301758,29.919773 
	C353.234955,33.876442 352.600281,39.167877 348.655457,41.531048 
	C347.187286,42.410576 345.271179,42.542442 343.139221,43.032574 
	C341.717346,38.438435 340.715607,33.826969 339.649780,28.831833 
z"/>
<path fill="#EFEBF3" opacity="1.000000" stroke="none" 
	d="
M339.869873,43.628174 
	C332.702820,40.409679 330.889038,33.402359 335.840302,27.103329 
	C337.426422,32.368225 338.666107,37.795609 339.869873,43.628174 
z"/>
<path fill="#EFEBF3" opacity="1.000000" stroke="none" 
	d="
M315.509003,38.958244 
	C318.261475,41.672699 320.804810,44.673737 323.643738,47.824249 
	C323.669067,49.104794 323.398743,50.235859 323.000397,51.697464 
	C320.201691,49.385536 317.530975,46.743069 314.527771,44.066422 
	C314.563446,42.436436 314.931641,40.840633 315.509003,38.958244 
z"/>
<path fill="#EFEBF3" opacity="1.000000" stroke="none" 
	d="
M328.724915,54.446541 
	C330.914642,52.874931 333.040588,51.495533 335.327637,50.478264 
	C336.480988,49.965260 337.926270,50.108589 339.239563,49.955135 
	C338.677795,51.045975 338.380493,52.474354 337.502808,53.161934 
	C335.223297,54.947769 332.688599,56.407932 329.852173,58.017056 
	C329.208313,56.953506 328.968018,55.870968 328.724915,54.446541 
z"/>
<path fill="#FEFDFF" opacity="1.000000" stroke="none" 
	d="
M575.105408,44.020634 
	C575.262878,38.705925 575.841125,33.853756 575.461304,29.077784 
	C575.068115,24.134623 577.464661,22.968435 581.565063,23.035801 
	C583.198669,23.062637 584.833069,23.040211 586.620972,23.040211 
	C586.723877,41.405148 587.838562,59.476059 586.948669,77.987061 
	C583.016357,77.987061 579.324280,77.987061 575.105347,77.987061 
	C575.105347,66.736160 575.105347,55.626400 575.105408,44.020634 
z"/>
<path fill="#FEFDFF" opacity="1.000000" stroke="none" 
	d="
M482.070068,77.200272 
	C472.316132,77.615074 463.035370,78.022575 452.797363,78.472115 
	C452.017334,59.956268 451.258606,41.945168 450.479675,23.454739 
	C462.817688,23.454739 474.665405,23.454739 486.972168,23.454739 
	C486.603241,26.587149 486.575714,29.756456 485.707794,32.675934 
	C485.382385,33.770599 483.128784,34.896130 481.709656,34.956383 
	C475.761444,35.208916 469.796356,35.062954 463.725525,35.062954 
	C461.990967,41.871143 462.704315,42.804813 469.720917,43.128010 
	C474.341125,43.340820 478.948242,43.837875 483.854401,44.231148 
	C483.854401,47.354668 483.854401,50.261143 483.854401,53.644291 
	C477.393860,54.276134 471.025116,54.898998 464.123413,55.573986 
	C464.455200,59.053860 464.762238,62.274323 465.132751,66.160706 
	C473.058746,65.810600 480.768829,65.470024 488.805756,65.115021 
	C488.805756,69.065918 488.805756,72.649055 488.805756,76.860931 
	C486.733429,76.970810 484.638336,77.081894 482.070068,77.200272 
z"/>
<path fill="#FEFDFF" opacity="1.000000" stroke="none" 
	d="
M360.281311,55.381344 
	C364.579285,45.958168 369.025177,37.000797 372.729767,27.746656 
	C374.386871,23.607164 376.856628,23.208633 380.653656,22.894819 
	C386.077759,22.446531 388.395813,24.358137 389.974487,29.561539 
	C394.603485,44.819004 399.867798,59.883732 405.039062,75.494331 
	C403.032501,76.049316 401.152130,76.453224 399.354218,77.089935 
	C395.123474,78.588188 391.961334,78.621452 391.375824,72.866386 
	C391.268982,71.816109 389.008026,70.325340 387.628876,70.190659 
	C383.834167,69.820084 379.950256,70.362267 376.155579,69.991577 
	C370.209625,69.410736 365.567047,70.365273 364.948395,77.860931 
	C360.721497,76.087700 356.956757,74.508347 352.624756,72.691025 
	C355.209198,66.847046 357.668213,61.286655 360.281311,55.381344 
M384.575623,46.883633 
	C383.660217,43.774136 382.744812,40.664639 381.466919,36.323803 
	C378.345917,43.987663 375.706757,50.468307 372.924866,57.299397 
	C377.930298,57.299397 382.346405,57.299397 387.134216,57.299397 
	C386.264587,53.715801 385.531006,50.692741 384.575623,46.883633 
z"/>
<path fill="#FEFCFF" opacity="1.000000" stroke="none" 
	d="
M415.950226,77.637253 
	C415.794434,63.710072 415.794434,50.227062 415.794434,36.158386 
	C410.810455,36.158386 405.760864,36.158386 400.263794,36.158386 
	C400.468018,32.143593 400.442627,28.691622 400.942474,25.317463 
	C401.085205,24.353966 402.742676,22.895233 403.720123,22.883545 
	C417.188232,22.722485 430.658936,22.774805 444.550659,22.774805 
	C444.550659,26.105074 444.550659,30.165649 444.550659,34.587269 
	C439.593109,34.587269 434.531464,34.587269 429.081726,34.587269 
	C429.081726,49.278000 429.081726,63.687321 429.081726,79.065689 
	C424.472961,78.716095 420.289490,78.398766 415.950226,77.637253 
z"/>
<path fill="#F9F4FE" opacity="1.000000" stroke="none" 
	d="
M546.674500,50.398582 
	C547.010681,52.033669 547.238525,53.299294 547.508545,54.799129 
	C545.442871,54.799129 543.528748,54.799129 540.819580,54.799129 
	C542.079407,51.458038 543.205688,48.471092 544.778320,44.300358 
	C545.633301,47.039898 546.099792,48.534512 546.674500,50.398582 
z"/>
<path fill="#B56FF8" opacity="1.000000" stroke="none" 
	d="
M384.686523,47.276657 
	C385.531006,50.692741 386.264587,53.715801 387.134216,57.299397 
	C382.346405,57.299397 377.930298,57.299397 372.924866,57.299397 
	C375.706757,50.468307 378.345917,43.987663 381.466919,36.323803 
	C382.744812,40.664639 383.660217,43.774136 384.686523,47.276657 
M377.358490,54.565346 
	C379.409515,54.714100 381.460541,54.862858 384.046204,55.050392 
	C382.962280,51.396038 382.079559,48.420002 380.833740,44.219696 
	C379.282440,48.309772 378.241791,51.053562 377.358490,54.565346 
z"/>
<path fill="#F9F4FE" opacity="1.000000" stroke="none" 
	d="
M377.279785,54.181351 
	C378.241791,51.053562 379.282440,48.309772 380.833740,44.219696 
	C382.079559,48.420002 382.962280,51.396038 384.046204,55.050392 
	C381.460541,54.862858 379.409515,54.714100 377.279785,54.181351 
z"/>
</svg>